<svg width="1200" height="720" viewBox="0 0 1200 720" fill="none" xmlns="http://www.w3.org/2000/svg">
  <rect width="1200" height="720" fill="#F7F8FB"/>
  <rect x="72" y="52" width="1056" height="616" rx="14" fill="white" stroke="#D9DEE8"/>
  <text x="108" y="112" fill="#172033" font-family="Arial, Helvetica, sans-serif" font-size="34" font-weight="700">ProjectFlow Dashboard</text>
  <rect x="918" y="82" width="150" height="34" rx="17" fill="#DCFCE7" stroke="#86EFAC"/>
  <text x="944" y="104" fill="#166534" font-family="Arial, Helvetica, sans-serif" font-size="14" font-weight="700">Live updates on</text>
  <rect x="108" y="146" width="960" height="44" rx="8" fill="#FFFFFF" stroke="#D9DEE8"/>
  <text x="128" y="174" fill="#667085" font-family="Arial, Helvetica, sans-serif" font-size="16">Search tasks</text>
  <g>
    <rect x="108" y="224" width="296" height="360" rx="8" fill="#EEF2F8" stroke="#D9DEE8"/>
    <text x="130" y="264" fill="#172033" font-family="Arial, Helvetica, sans-serif" font-size="22" font-weight="700">Todo</text>
    <rect x="130" y="294" width="252" height="112" rx="8" fill="#FFFFFF" stroke="#D9DEE8"/>
    <text x="148" y="326" fill="#172033" font-family="Arial, Helvetica, sans-serif" font-size="17" font-weight="700">Write README</text>
    <text x="148" y="354" fill="#667085" font-family="Arial, Helvetica, sans-serif" font-size="14">Screenshots, setup, architecture</text>
    <rect x="148" y="370" width="58" height="24" rx="6" fill="#E8EEFC"/>
    <text x="160" y="387" fill="#1D4ED8" font-family="Arial, Helvetica, sans-serif" font-size="12" font-weight="700">HIGH</text>
  </g>
  <g>
    <rect x="452" y="224" width="296" height="360" rx="8" fill="#EEF2F8" stroke="#D9DEE8"/>
    <text x="474" y="264" fill="#172033" font-family="Arial, Helvetica, sans-serif" font-size="22" font-weight="700">In Progress</text>
    <rect x="474" y="294" width="252" height="112" rx="8" fill="#FFFFFF" stroke="#D9DEE8"/>
    <text x="492" y="326" fill="#172033" font-family="Arial, Helvetica, sans-serif" font-size="17" font-weight="700">Test keyboard moves</text>
    <text x="492" y="354" fill="#667085" font-family="Arial, Helvetica, sans-serif" font-size="14">A11y and integration coverage</text>
    <rect x="492" y="370" width="76" height="24" rx="6" fill="#E8EEFC"/>
    <text x="504" y="387" fill="#1D4ED8" font-family="Arial, Helvetica, sans-serif" font-size="12" font-weight="700">MEDIUM</text>
  </g>
  <g>
    <rect x="796" y="224" width="296" height="360" rx="8" fill="#EEF2F8" stroke="#D9DEE8"/>
    <text x="818" y="264" fill="#172033" font-family="Arial, Helvetica, sans-serif" font-size="22" font-weight="700">Done</text>
    <rect x="818" y="294" width="252" height="112" rx="8" fill="#FFFFFF" stroke="#D9DEE8"/>
    <text x="836" y="326" fill="#172033" font-family="Arial, Helvetica, sans-serif" font-size="17" font-weight="700">Deploy plan ready</text>
    <text x="836" y="354" fill="#667085" font-family="Arial, Helvetica, sans-serif" font-size="14">Vercel, Railway, Supabase</text>
    <rect x="836" y="370" width="52" height="24" rx="6" fill="#E8EEFC"/>
    <text x="848" y="387" fill="#1D4ED8" font-family="Arial, Helvetica, sans-serif" font-size="12" font-weight="700">LOW</text>
  </g>
</svg>
